<svg width="70" height="70" fill="none" xmlns="http://www.w3.org/2000/svg"><mask id="a" style="mask-type:alpha" maskUnits="userSpaceOnUse" x="0" y="0" width="70" height="70"><path fill="#C4C4C4" d="M0 0h70v70H0z"/></mask><g mask="url(#a)"><path fill="#EE3643" d="m22.21-23 70.71 70.7-21.21 21.22L1-1.78z"/><path d="m35.92 14.77.55-1.63-.05-.05-.93 1.24-3.61 3.62-1.3-1.29 6.99-6.98.99 1-1.07 6.3-.54 1.6.05.04.9-1.22 3.65-3.64 1.28 1.29-6.97 6.98-1-1 1.06-6.26Zm9.52 2.88 4.1 4.1-1.2 1.22-2.75-2.76-1.62 1.62 2.5 2.5-1.2 1.21-2.5-2.5-1.7 1.69 2.8 2.8-1.2 1.2-4.16-4.15 6.93-6.93Zm4.52 12.26-1.1 1.36.04.04 1.38-1.11 5.06-2.65.9.9-2.69 5.05-1.09 1.37.04.04 1.4-1.1 4.69-3.01 1.37 1.38-8.89 5.06-.9-.9 2.6-5.1.9-1.22-.05-.05-1.24.9-5.07 2.61-.96-.96 5.08-8.88 1.48 1.48-2.95 4.79Z" fill="#fff"/></g></svg>