<svg width="16" height="17" fill="none" xmlns="http://www.w3.org/2000/svg"><path fill-rule="evenodd" clip-rule="evenodd" d="M8 16.39a8 8 0 1 1 0-16 8 8 0 0 1 0 16Zm5.38-4.28a6.55 6.55 0 1 0-10.76 0c.82-1.08 2.74-1.54 5.37-1.54-1.62 0-2.9-1.15-2.9-3.64A2.8 2.8 0 0 1 8 4.03c1.76 0 2.9 1.39 2.9 3.05 0 2.38-1.28 3.48-2.9 3.49 2.64 0 4.56.46 5.38 1.54Zm-1.04 1.18c-.21-.77-1.74-1.27-4.34-1.27-2.6 0-4.13.5-4.34 1.27a6.52 6.52 0 0 0 8.68 0Zm-5.8-6.36c0 1.65.6 2.18 1.46 2.18s1.45-.5 1.45-2.03c0-.91-.57-1.6-1.45-1.6-.92 0-1.45.59-1.45 1.45Z" fill="#fff" opacity=".8"/></svg>